<mxfile host="app.diagrams.net" modified="2024-05-27T12:14:12.574Z" agent="Mozilla/5.0 (Windows NT 10.0; Win64; x64) AppleWebKit/537.36 (KHTML, like Gecko) Chrome/121.0.0.0 Safari/537.36" etag="OHRLj1wJWmW-M0u3-8iI" version="24.4.9" type="device">
  <diagram name="Página-1" id="bd7n4HNcG-KMOQsnrsHl">
    <mxGraphModel dx="1434" dy="782" grid="1" gridSize="10" guides="1" tooltips="1" connect="1" arrows="1" fold="1" page="1" pageScale="1" pageWidth="827" pageHeight="1169" math="0" shadow="0">
      <root>
        <mxCell id="0" />
        <mxCell id="1" parent="0" />
        <mxCell id="y2mq0qmIcULg0XTEGBko-9" value="" style="edgeStyle=orthogonalEdgeStyle;rounded=0;orthogonalLoop=1;jettySize=auto;html=1;" parent="1" source="y2mq0qmIcULg0XTEGBko-1" target="y2mq0qmIcULg0XTEGBko-2" edge="1">
          <mxGeometry relative="1" as="geometry" />
        </mxCell>
        <mxCell id="y2mq0qmIcULg0XTEGBko-29" style="edgeStyle=orthogonalEdgeStyle;rounded=0;orthogonalLoop=1;jettySize=auto;html=1;" parent="1" source="y2mq0qmIcULg0XTEGBko-1" edge="1">
          <mxGeometry relative="1" as="geometry">
            <mxPoint x="340" y="580" as="targetPoint" />
            <Array as="points">
              <mxPoint x="240" y="150" />
              <mxPoint x="240" y="580" />
            </Array>
          </mxGeometry>
        </mxCell>
        <mxCell id="y2mq0qmIcULg0XTEGBko-1" value="Inicio" style="ellipse;whiteSpace=wrap;html=1;" parent="1" vertex="1">
          <mxGeometry x="340" y="100" width="160" height="100" as="geometry" />
        </mxCell>
        <mxCell id="y2mq0qmIcULg0XTEGBko-11" value="" style="edgeStyle=orthogonalEdgeStyle;rounded=0;orthogonalLoop=1;jettySize=auto;html=1;" parent="1" source="y2mq0qmIcULg0XTEGBko-2" target="y2mq0qmIcULg0XTEGBko-4" edge="1">
          <mxGeometry relative="1" as="geometry">
            <Array as="points">
              <mxPoint x="490" y="310" />
              <mxPoint x="490" y="310" />
            </Array>
          </mxGeometry>
        </mxCell>
        <mxCell id="y2mq0qmIcULg0XTEGBko-13" value="" style="edgeStyle=orthogonalEdgeStyle;rounded=0;orthogonalLoop=1;jettySize=auto;html=1;exitX=0.182;exitY=1;exitDx=0;exitDy=0;exitPerimeter=0;entryX=0.5;entryY=0;entryDx=0;entryDy=0;" parent="1" source="y2mq0qmIcULg0XTEGBko-2" target="y2mq0qmIcULg0XTEGBko-3" edge="1">
          <mxGeometry relative="1" as="geometry">
            <Array as="points" />
          </mxGeometry>
        </mxCell>
        <mxCell id="y2mq0qmIcULg0XTEGBko-2" value="listar clientes" style="rounded=0;whiteSpace=wrap;html=1;" parent="1" vertex="1">
          <mxGeometry x="335" y="230" width="170" height="70" as="geometry" />
        </mxCell>
        <mxCell id="y2mq0qmIcULg0XTEGBko-27" style="edgeStyle=orthogonalEdgeStyle;rounded=0;orthogonalLoop=1;jettySize=auto;html=1;entryX=0.589;entryY=-0.04;entryDx=0;entryDy=0;entryPerimeter=0;" parent="1" target="y2mq0qmIcULg0XTEGBko-5" edge="1">
          <mxGeometry relative="1" as="geometry">
            <mxPoint x="360" y="380" as="sourcePoint" />
            <Array as="points">
              <mxPoint x="360" y="400" />
              <mxPoint x="313" y="400" />
            </Array>
          </mxGeometry>
        </mxCell>
        <mxCell id="y2mq0qmIcULg0XTEGBko-3" value="buscar clientes" style="rounded=0;whiteSpace=wrap;html=1;" parent="1" vertex="1">
          <mxGeometry x="318" y="330" width="96" height="50" as="geometry" />
        </mxCell>
        <mxCell id="y2mq0qmIcULg0XTEGBko-4" value="cadastrar clientes" style="rounded=0;whiteSpace=wrap;html=1;" parent="1" vertex="1">
          <mxGeometry x="440" y="330" width="100" height="50" as="geometry" />
        </mxCell>
        <mxCell id="y2mq0qmIcULg0XTEGBko-5" value="apagar clientes" style="rounded=0;whiteSpace=wrap;html=1;" parent="1" vertex="1">
          <mxGeometry x="260" y="420" width="90" height="50" as="geometry" />
        </mxCell>
        <mxCell id="y2mq0qmIcULg0XTEGBko-23" style="edgeStyle=orthogonalEdgeStyle;rounded=0;orthogonalLoop=1;jettySize=auto;html=1;entryX=0;entryY=0.5;entryDx=0;entryDy=0;" parent="1" source="y2mq0qmIcULg0XTEGBko-6" target="y2mq0qmIcULg0XTEGBko-20" edge="1">
          <mxGeometry relative="1" as="geometry" />
        </mxCell>
        <mxCell id="y2mq0qmIcULg0XTEGBko-6" value="atualizar cliente" style="rounded=0;whiteSpace=wrap;html=1;" parent="1" vertex="1">
          <mxGeometry x="370" y="420" width="90" height="50" as="geometry" />
        </mxCell>
        <mxCell id="y2mq0qmIcULg0XTEGBko-40" style="edgeStyle=orthogonalEdgeStyle;rounded=0;orthogonalLoop=1;jettySize=auto;html=1;entryX=1;entryY=0.5;entryDx=0;entryDy=0;" parent="1" source="y2mq0qmIcULg0XTEGBko-14" target="y2mq0qmIcULg0XTEGBko-2" edge="1">
          <mxGeometry relative="1" as="geometry">
            <Array as="points">
              <mxPoint x="640" y="260" />
              <mxPoint x="505" y="260" />
            </Array>
          </mxGeometry>
        </mxCell>
        <mxCell id="y2mq0qmIcULg0XTEGBko-14" value="dados dos clientes" style="rhombus;whiteSpace=wrap;html=1;" parent="1" vertex="1">
          <mxGeometry x="600" y="280" width="80" height="80" as="geometry" />
        </mxCell>
        <mxCell id="y2mq0qmIcULg0XTEGBko-17" value="sim" style="text;html=1;align=center;verticalAlign=middle;whiteSpace=wrap;rounded=0;" parent="1" vertex="1">
          <mxGeometry x="540" y="240" width="60" height="30" as="geometry" />
        </mxCell>
        <mxCell id="y2mq0qmIcULg0XTEGBko-18" style="edgeStyle=orthogonalEdgeStyle;rounded=0;orthogonalLoop=1;jettySize=auto;html=1;entryX=1.02;entryY=0.64;entryDx=0;entryDy=0;entryPerimeter=0;exitX=0.5;exitY=1;exitDx=0;exitDy=0;" parent="1" source="y2mq0qmIcULg0XTEGBko-14" target="y2mq0qmIcULg0XTEGBko-4" edge="1">
          <mxGeometry relative="1" as="geometry">
            <Array as="points">
              <mxPoint x="640" y="362" />
            </Array>
          </mxGeometry>
        </mxCell>
        <mxCell id="y2mq0qmIcULg0XTEGBko-19" value="não" style="text;html=1;align=center;verticalAlign=middle;whiteSpace=wrap;rounded=0;" parent="1" vertex="1">
          <mxGeometry x="560" y="340" width="60" height="30" as="geometry" />
        </mxCell>
        <mxCell id="y2mq0qmIcULg0XTEGBko-21" style="edgeStyle=orthogonalEdgeStyle;rounded=0;orthogonalLoop=1;jettySize=auto;html=1;entryX=1;entryY=0.5;entryDx=0;entryDy=0;exitX=1;exitY=0.5;exitDx=0;exitDy=0;" parent="1" source="y2mq0qmIcULg0XTEGBko-20" target="y2mq0qmIcULg0XTEGBko-1" edge="1">
          <mxGeometry relative="1" as="geometry">
            <Array as="points">
              <mxPoint x="690" y="445" />
              <mxPoint x="690" y="150" />
            </Array>
          </mxGeometry>
        </mxCell>
        <mxCell id="y2mq0qmIcULg0XTEGBko-20" value="dados validos" style="rhombus;whiteSpace=wrap;html=1;" parent="1" vertex="1">
          <mxGeometry x="600" y="405" width="80" height="80" as="geometry" />
        </mxCell>
        <mxCell id="y2mq0qmIcULg0XTEGBko-22" value="sim" style="text;html=1;align=center;verticalAlign=middle;whiteSpace=wrap;rounded=0;" parent="1" vertex="1">
          <mxGeometry x="600" y="130" width="60" height="30" as="geometry" />
        </mxCell>
        <mxCell id="y2mq0qmIcULg0XTEGBko-24" style="edgeStyle=orthogonalEdgeStyle;rounded=0;orthogonalLoop=1;jettySize=auto;html=1;entryX=0.433;entryY=1.02;entryDx=0;entryDy=0;entryPerimeter=0;exitX=0.5;exitY=1;exitDx=0;exitDy=0;" parent="1" source="y2mq0qmIcULg0XTEGBko-20" target="y2mq0qmIcULg0XTEGBko-6" edge="1">
          <mxGeometry relative="1" as="geometry" />
        </mxCell>
        <mxCell id="y2mq0qmIcULg0XTEGBko-25" value="não" style="text;html=1;align=center;verticalAlign=middle;whiteSpace=wrap;rounded=0;" parent="1" vertex="1">
          <mxGeometry x="500" y="485" width="60" height="30" as="geometry" />
        </mxCell>
        <mxCell id="y2mq0qmIcULg0XTEGBko-26" style="edgeStyle=orthogonalEdgeStyle;rounded=0;orthogonalLoop=1;jettySize=auto;html=1;entryX=0.433;entryY=0;entryDx=0;entryDy=0;entryPerimeter=0;exitX=0.427;exitY=1;exitDx=0;exitDy=0;exitPerimeter=0;" parent="1" source="y2mq0qmIcULg0XTEGBko-3" target="y2mq0qmIcULg0XTEGBko-6" edge="1">
          <mxGeometry relative="1" as="geometry" />
        </mxCell>
        <mxCell id="y2mq0qmIcULg0XTEGBko-28" value="fim" style="ellipse;whiteSpace=wrap;html=1;" parent="1" vertex="1">
          <mxGeometry x="345" y="540" width="150" height="90" as="geometry" />
        </mxCell>
        <mxCell id="y2mq0qmIcULg0XTEGBko-41" value="cliente cadastrado?" style="rhombus;whiteSpace=wrap;html=1;" parent="1" vertex="1">
          <mxGeometry x="700" y="310" width="90" height="85" as="geometry" />
        </mxCell>
      </root>
    </mxGraphModel>
  </diagram>
</mxfile>
